<svg width="1128" height="722" viewBox="0 0 1128 722" fill="none" xmlns="http://www.w3.org/2000/svg">
<path d="M131.228 120.766L146.47 105.485L131.228 90.2034L126.518 94.9006L137.075 105.485L126.518 116.069L131.228 120.766Z" fill="black" fill-opacity="0.02"/>
<path d="M106.47 94.9196L117.093 105.495L106.47 116.071L111.163 120.785L126.52 105.495L111.163 90.2059L106.47 94.9196Z" fill="black" fill-opacity="0.02"/>
<path d="M292.492 50.9411L307.734 35.6598L292.492 20.3786L287.782 25.0757L298.339 35.6598L287.782 46.244L292.492 50.9411Z" fill="black" fill-opacity="0.02"/>
<path d="M267.734 25.0948L278.357 35.6706L267.734 46.2465L272.427 50.9602L287.784 35.6706L272.427 20.3811L267.734 25.0948Z" fill="black" fill-opacity="0.02"/>
<path d="M246.416 353.516L261.658 338.234L246.416 322.953L241.707 327.65L252.264 338.234L241.707 348.818L246.416 353.516Z" fill="black" fill-opacity="0.02"/>
<path d="M221.658 327.669L232.282 338.245L221.658 348.821L226.351 353.535L241.709 338.245L226.351 322.955L221.658 327.669Z" fill="black" fill-opacity="0.02"/>
<path d="M499.831 562.99L515.073 547.709L499.831 532.428L495.122 537.125L505.679 547.709L495.122 558.293L499.831 562.99Z" fill="black" fill-opacity="0.02"/>
<path d="M475.073 537.144L485.697 547.72L475.073 558.295L479.766 563.009L495.124 547.72L479.766 532.43L475.073 537.144Z" fill="black" fill-opacity="0.02"/>
<path d="M545.906 260.416L561.148 245.134L545.906 229.853L541.197 234.55L551.754 245.134L541.197 255.719L545.906 260.416Z" fill="black" fill-opacity="0.02"/>
<path d="M521.148 234.569L531.772 245.145L521.148 255.721L525.841 260.435L541.199 245.145L525.841 229.856L521.148 234.569Z" fill="black" fill-opacity="0.02"/>
<path d="M1120.13 653.518L1130.75 664.094L1120.13 674.67L1124.82 679.384L1140.18 664.094L1124.82 648.805L1120.13 653.518Z" fill="black" fill-opacity="0.02"/>
<path d="M868.435 27.6662L883.677 12.3849L868.435 -2.89639L863.725 1.80077L874.282 12.3849L863.725 22.969L868.435 27.6662Z" fill="black" fill-opacity="0.02"/>
<path d="M843.677 1.81981L854.3 12.3957L843.677 22.9715L848.37 27.6852L863.727 12.3957L848.37 -2.8939L843.677 1.81981Z" fill="black" fill-opacity="0.02"/>
<path d="M1052.74 213.866L1067.98 198.584L1052.74 183.303L1048.03 188L1058.58 198.584L1048.03 209.169L1052.74 213.866Z" fill="black" fill-opacity="0.02"/>
<path d="M1027.98 188.019L1038.6 198.595L1027.98 209.171L1032.67 213.885L1048.03 198.595L1032.67 183.306L1027.98 188.019Z" fill="black" fill-opacity="0.02"/>
<path d="M1098.81 516.44L1114.05 501.159L1098.81 485.878L1094.1 490.575L1104.66 501.159L1094.1 511.743L1098.81 516.44Z" fill="black" fill-opacity="0.02"/>
<path d="M1074.05 490.594L1084.68 501.17L1074.05 511.746L1078.75 516.459L1094.1 501.17L1078.75 485.88L1074.05 490.594Z" fill="black" fill-opacity="0.02"/>
<path d="M430.718 632.815L445.96 617.534L430.718 602.252L426.008 606.95L436.566 617.534L426.008 628.118L430.718 632.815Z" fill="black" fill-opacity="0.02"/>
<path d="M405.96 606.969L416.583 617.544L405.96 628.12L410.653 632.834L426.011 617.544L410.653 602.255L405.96 606.969Z" fill="black" fill-opacity="0.02"/>
<path d="M799.321 423.34L814.563 408.059L799.321 392.778L794.612 397.475L805.169 408.059L794.612 418.643L799.321 423.34Z" fill="black" fill-opacity="0.02"/>
<path d="M774.563 397.494L785.187 408.07L774.563 418.646L779.256 423.359L794.614 408.07L779.256 392.78L774.563 397.494Z" fill="black" fill-opacity="0.02"/>
<path d="M453.756 656.09L468.998 640.809L453.756 625.527L449.046 630.224L459.603 640.809L449.046 651.393L453.756 656.09Z" fill="black" fill-opacity="0.02"/>
<path d="M428.998 630.244L439.621 640.819L428.998 651.395L433.691 656.109L449.048 640.819L433.691 625.53L428.998 630.244Z" fill="black" fill-opacity="0.02"/>
<path d="M476.793 190.591L492.035 175.31L476.793 160.028L472.084 164.725L482.641 175.31L472.084 185.894L476.793 190.591Z" fill="black" fill-opacity="0.02"/>
<path d="M452.035 164.745L462.659 175.32L452.035 185.896L456.728 190.61L472.086 175.32L456.728 160.031L452.035 164.745Z" fill="black" fill-opacity="0.02"/>
<path d="M177.303 97.491L192.545 82.2098L177.303 66.9285L172.594 71.6256L183.151 82.2098L172.594 92.7939L177.303 97.491Z" fill="black" fill-opacity="0.02"/>
<path d="M152.545 71.6447L163.168 82.2205L152.545 92.7964L157.238 97.5101L172.596 82.2205L157.238 66.931L152.545 71.6447Z" fill="black" fill-opacity="0.02"/>
<path d="M361.605 213.866L376.847 198.584L361.605 183.303L356.895 188L367.452 198.584L356.895 209.169L361.605 213.866Z" fill="black" fill-opacity="0.02"/>
<path d="M336.847 188.019L347.47 198.595L336.847 209.171L341.54 213.885L356.898 198.595L341.54 183.306L336.847 188.019Z" fill="black" fill-opacity="0.02"/>
<path d="M671.609 100.736L656.327 85.4943L641.046 100.736L645.743 105.446L656.327 94.8886L666.912 105.446L671.609 100.736Z" fill="black" fill-opacity="0.02"/>
<path d="M645.762 125.494L656.338 114.871L666.914 125.494L671.628 120.801L656.338 105.443L641.049 120.801L645.762 125.494Z" fill="black" fill-opacity="0.02"/>
<path d="M971.099 240.386L955.818 225.144L940.537 240.386L945.234 245.096L955.818 234.538L966.402 245.096L971.099 240.386Z" fill="black" fill-opacity="0.02"/>
<path d="M945.253 265.144L955.829 254.521L966.404 265.144L971.118 260.451L955.829 245.093L940.539 260.451L945.253 265.144Z" fill="black" fill-opacity="0.02"/>
<path d="M717.684 449.861L702.403 434.619L687.122 449.861L691.819 454.57L702.403 444.013L712.987 454.57L717.684 449.861Z" fill="black" fill-opacity="0.02"/>
<path d="M691.838 474.619L702.414 463.995L712.99 474.619L717.703 469.926L702.414 454.568L687.124 469.926L691.838 474.619Z" fill="black" fill-opacity="0.02"/>
<path d="M556.42 380.036L541.139 364.794L525.858 380.036L530.555 384.745L541.139 374.188L551.723 384.745L556.42 380.036Z" fill="black" fill-opacity="0.02"/>
<path d="M530.574 404.794L541.15 394.17L551.725 404.794L556.439 400.101L541.15 384.743L525.86 400.101L530.574 404.794Z" fill="black" fill-opacity="0.02"/>
<path d="M602.496 682.61L587.214 667.368L571.933 682.61L576.63 687.32L587.214 676.762L597.798 687.32L602.496 682.61Z" fill="black" fill-opacity="0.02"/>
<path d="M576.649 707.368L587.225 696.745L597.801 707.368L602.515 702.675L587.225 687.317L571.936 702.675L576.649 707.368Z" fill="black" fill-opacity="0.02"/>
<path d="M303.005 589.51L287.724 574.268L272.443 589.51L277.14 594.22L287.724 583.663L298.308 594.22L303.005 589.51Z" fill="black" fill-opacity="0.02"/>
<path d="M277.159 614.268L287.735 603.645L298.311 614.268L303.024 609.575L287.735 594.217L272.445 609.575L277.159 614.268Z" fill="black" fill-opacity="0.02"/>
<path d="M118.704 589.51L103.422 574.268L88.141 589.51L92.8381 594.22L103.422 583.663L114.006 594.22L118.704 589.51Z" fill="black" fill-opacity="0.02"/>
<path d="M92.8572 614.268L103.433 603.645L114.009 614.268L118.723 609.575L103.433 594.217L88.1435 609.575L92.8572 614.268Z" fill="black" fill-opacity="0.02"/>
<path d="M372.118 380.036L356.837 364.794L341.556 380.036L346.253 384.745L356.837 374.188L367.421 384.745L372.118 380.036Z" fill="black" fill-opacity="0.02"/>
<path d="M346.272 404.794L356.848 394.17L367.424 404.794L372.138 400.101L356.848 384.743L341.558 400.101L346.272 404.794Z" fill="black" fill-opacity="0.02"/>
<path d="M418.194 682.61L402.913 667.368L387.631 682.61L392.328 687.32L402.913 676.762L413.497 687.32L418.194 682.61Z" fill="black" fill-opacity="0.02"/>
<path d="M392.347 707.368L402.923 696.745L413.499 707.368L418.213 702.675L402.923 687.317L387.634 702.675L392.347 707.368Z" fill="black" fill-opacity="0.02"/>
<path d="M625.533 170.561L610.252 155.319L594.971 170.561L599.668 175.271L610.252 164.714L620.836 175.271L625.533 170.561Z" fill="black" fill-opacity="0.02"/>
<path d="M599.687 195.319L610.263 184.696L620.839 195.319L625.552 190.626L610.263 175.268L594.973 190.626L599.687 195.319Z" fill="black" fill-opacity="0.02"/>
<path d="M1017.17 263.661L1001.89 248.419L986.612 263.661L991.309 268.371L1001.89 257.813L1012.48 268.371L1017.17 263.661Z" fill="black" fill-opacity="0.02"/>
<path d="M991.328 288.419L1001.9 277.796L1012.48 288.419L1017.19 283.726L1001.9 268.368L986.614 283.726L991.328 288.419Z" fill="black" fill-opacity="0.02"/>
<path d="M49.5904 124.011L34.3091 108.769L19.0278 124.011L23.725 128.721L34.3091 118.164L44.8933 128.721L49.5904 124.011Z" fill="black" fill-opacity="0.02"/>
<path d="M23.7441 148.769L34.3199 138.146L44.8958 148.769L49.6095 144.076L34.3199 128.718L19.0303 144.076L23.7441 148.769Z" fill="black" fill-opacity="0.02"/>
<path d="M1086.29 659.335L1071.01 644.093L1055.73 659.335L1060.42 664.045L1071.01 653.487L1081.59 664.045L1086.29 659.335Z" fill="black" fill-opacity="0.02"/>
<path d="M1060.44 684.093L1071.02 673.47L1081.59 684.093L1086.31 679.4L1071.02 664.042L1055.73 679.4L1060.44 684.093Z" fill="black" fill-opacity="0.02"/>
<path d="M510.345 636.06L495.063 620.818L479.782 636.06L484.479 640.77L495.063 630.213L505.648 640.77L510.345 636.06Z" fill="black" fill-opacity="0.02"/>
<path d="M484.498 660.818L495.074 650.195L505.65 660.818L510.364 656.125L495.074 640.767L479.785 656.125L484.498 660.818Z" fill="black" fill-opacity="0.02"/>
<path d="M971.099 426.586L955.818 411.344L940.537 426.586L945.234 431.295L955.818 420.738L966.402 431.295L971.099 426.586Z" fill="black" fill-opacity="0.02"/>
<path d="M945.253 451.344L955.829 440.72L966.404 451.344L971.118 446.651L955.829 431.293L940.539 446.651L945.253 451.344Z" fill="black" fill-opacity="0.02"/>
<path d="M717.684 217.111L702.403 201.869L687.122 217.111L691.819 221.821L702.403 211.263L712.987 221.821L717.684 217.111Z" fill="black" fill-opacity="0.02"/>
<path d="M691.838 241.869L702.414 231.246L712.99 241.869L717.703 237.176L702.414 221.818L687.124 237.176L691.838 241.869Z" fill="black" fill-opacity="0.02"/>
<path d="M671.609 519.685L656.327 504.443L641.046 519.685L645.743 524.395L656.327 513.838L666.912 524.395L671.609 519.685Z" fill="black" fill-opacity="0.02"/>
<path d="M645.762 544.443L656.338 533.82L666.914 544.443L671.628 539.75L656.338 524.393L641.049 539.75L645.762 544.443Z" fill="black" fill-opacity="0.02"/>
<path d="M464.269 7.63647L448.988 -7.6055L433.707 7.63647L438.404 12.346L448.988 1.78882L459.572 12.346L464.269 7.63647Z" fill="black" fill-opacity="0.02"/>
<path d="M438.423 32.3945L448.999 21.7711L459.575 32.3945L464.288 27.7015L448.999 12.3436L433.709 27.7015L438.423 32.3945Z" fill="black" fill-opacity="0.02"/>
<path d="M72.6281 100.736L57.3469 85.4943L42.0656 100.736L46.7627 105.446L57.3469 94.8886L67.931 105.446L72.6281 100.736Z" fill="black" fill-opacity="0.02"/>
<path d="M46.7818 125.494L57.3576 114.871L67.9335 125.494L72.6472 120.801L57.3576 105.443L42.0681 120.801L46.7818 125.494Z" fill="black" fill-opacity="0.02"/>
<path d="M92.8572 9.11954L103.433 -1.5039L114.009 9.11954L118.723 4.42652L103.433 -10.9313L88.1435 4.42652L92.8572 9.11954Z" fill="black" fill-opacity="0.02"/>
<path d="M510.345 77.4613L495.063 62.2194L479.782 77.4613L484.479 82.1709L495.063 71.6137L505.648 82.1709L510.345 77.4613Z" fill="black" fill-opacity="0.02"/>
<path d="M484.498 102.219L495.074 91.5959L505.65 102.219L510.364 97.5263L495.074 82.1685L479.785 97.5263L484.498 102.219Z" fill="black" fill-opacity="0.02"/>
<path d="M809.835 170.561L794.554 155.319L779.272 170.561L783.97 175.271L794.554 164.714L805.138 175.271L809.835 170.561Z" fill="black" fill-opacity="0.02"/>
<path d="M783.989 195.319L794.564 184.696L805.14 195.319L809.854 190.626L794.564 175.268L779.275 190.626L783.989 195.319Z" fill="black" fill-opacity="0.02"/>
<path d="M233.892 729.16L218.611 713.918L203.33 729.16L208.027 733.87L218.611 723.312L229.195 733.87L233.892 729.16Z" fill="black" fill-opacity="0.02"/>
<path d="M827.562 689.922L827.545 677.363L814.987 677.347L814.982 681.217L823.68 681.228L823.691 689.927L827.562 689.922Z" fill="black" fill-opacity="0.02"/>
<path d="M806.74 689.474L815.463 689.454L815.443 698.177L819.314 698.185L819.342 685.576L806.732 685.604L806.74 689.474Z" fill="black" fill-opacity="0.02"/>
<path d="M574.147 480.447L574.13 467.888L561.572 467.872L561.567 471.743L570.265 471.754L570.276 480.452L574.147 480.447Z" fill="black" fill-opacity="0.02"/>
<path d="M553.325 479.999L562.048 479.98L562.028 488.702L565.899 488.711L565.927 476.101L553.317 476.129L553.325 479.999Z" fill="black" fill-opacity="0.02"/>
<path d="M412.883 550.272L412.866 537.713L400.308 537.697L400.303 541.567L409.001 541.578L409.012 550.277L412.883 550.272Z" fill="black" fill-opacity="0.02"/>
<path d="M392.061 549.824L400.784 549.805L400.764 558.527L404.635 558.536L404.663 545.926L392.053 545.954L392.061 549.824Z" fill="black" fill-opacity="0.02"/>
<path d="M965.788 480.447L965.772 467.888L953.213 467.872L953.208 471.743L961.906 471.754L961.918 480.452L965.788 480.447Z" fill="black" fill-opacity="0.02"/>
<path d="M944.967 479.999L953.689 479.98L953.67 488.702L957.54 488.711L957.568 476.101L944.958 476.129L944.967 479.999Z" fill="black" fill-opacity="0.02"/>
<path d="M988.826 503.722L988.809 491.163L976.251 491.147L976.246 495.018L984.944 495.029L984.955 503.727L988.826 503.722Z" fill="black" fill-opacity="0.02"/>
<path d="M968.004 503.274L976.727 503.255L976.707 511.977L980.578 511.986L980.606 499.376L967.996 499.404L968.004 503.274Z" fill="black" fill-opacity="0.02"/>
<path d="M1127.05 573.547L1127.04 560.988L1114.48 560.972L1114.47 564.842L1123.17 564.853L1123.18 573.552L1127.05 573.547Z" fill="black" fill-opacity="0.02"/>
<path d="M1106.23 573.099L1114.95 573.08L1114.93 581.802L1118.8 581.81L1118.83 569.201L1106.22 569.229L1106.23 573.099Z" fill="black" fill-opacity="0.02"/>
<path d="M1085.58 270.973L1085.57 258.414L1073.01 258.398L1073 262.268L1081.7 262.279L1081.71 270.978L1085.58 270.973Z" fill="black" fill-opacity="0.02"/>
<path d="M1064.76 270.525L1073.49 270.505L1073.47 279.228L1077.34 279.236L1077.36 266.626L1064.75 266.654L1064.76 270.525Z" fill="black" fill-opacity="0.02"/>
<path d="M786.094 503.722L786.077 491.163L773.519 491.147L773.514 495.018L782.212 495.029L782.223 503.727L786.094 503.722Z" fill="black" fill-opacity="0.02"/>
<path d="M765.272 503.274L773.995 503.255L773.975 511.977L777.846 511.986L777.874 499.376L765.264 499.404L765.272 503.274Z" fill="black" fill-opacity="0.02"/>
<path d="M942.75 573.547L942.734 560.988L930.175 560.972L930.17 564.842L938.869 564.853L938.88 573.552L942.75 573.547Z" fill="black" fill-opacity="0.02"/>
<path d="M921.929 573.099L930.651 573.08L930.632 581.802L934.502 581.81L934.53 569.201L921.921 569.229L921.929 573.099Z" fill="black" fill-opacity="0.02"/>
<path d="M901.282 270.973L901.266 258.414L888.707 258.398L888.702 262.268L897.401 262.279L897.412 270.978L901.282 270.973Z" fill="black" fill-opacity="0.02"/>
<path d="M880.461 270.525L889.184 270.505L889.164 279.228L893.034 279.236L893.062 266.626L880.453 266.654L880.461 270.525Z" fill="black" fill-opacity="0.02"/>
<path d="M1131.66 433.897L1131.64 421.339L1119.08 421.322L1119.08 425.193L1127.78 425.204L1127.79 433.902L1131.66 433.897Z" fill="black" fill-opacity="0.02"/>
<path d="M1110.84 433.45L1119.56 433.43L1119.54 442.152L1123.41 442.161L1123.44 429.551L1110.83 429.579L1110.84 433.45Z" fill="black" fill-opacity="0.02"/>
<path d="M832.169 526.997L832.153 514.438L819.594 514.422L819.589 518.293L828.288 518.304L828.299 527.002L832.169 526.997Z" fill="black" fill-opacity="0.02"/>
<path d="M811.348 526.549L820.07 526.53L820.051 535.252L823.921 535.261L823.949 522.651L811.339 522.679L811.348 526.549Z" fill="black" fill-opacity="0.02"/>
<path d="M1016.47 410.622L1016.45 398.064L1003.9 398.047L1003.89 401.918L1012.59 401.929L1012.6 410.627L1016.47 410.622Z" fill="black" fill-opacity="0.02"/>
<path d="M995.65 410.174L1004.37 410.155L1004.35 418.877L1008.22 418.886L1008.25 406.276L995.641 406.304L995.65 410.174Z" fill="black" fill-opacity="0.02"/>
<path d="M458.958 247.698L458.942 235.139L446.383 235.123L446.378 238.993L455.077 239.004L455.088 247.703L458.958 247.698Z" fill="black" fill-opacity="0.02"/>
<path d="M438.137 247.25L446.859 247.23L446.84 255.953L450.71 255.961L450.738 243.351L438.128 243.379L438.137 247.25Z" fill="black" fill-opacity="0.02"/>
<path d="M205.543 38.223L205.527 25.6643L192.968 25.6482L192.963 29.5185L201.662 29.5296L201.673 38.2281L205.543 38.223Z" fill="black" fill-opacity="0.02"/>
<path d="M184.722 37.7753L193.444 37.7557L193.425 46.4781L197.295 46.4866L197.323 33.8768L184.713 33.9049L184.722 37.7753Z" fill="black" fill-opacity="0.02"/>
<path d="M159.468 340.797L159.452 328.239L146.893 328.223L146.888 332.093L155.586 332.104L155.597 340.802L159.468 340.797Z" fill="black" fill-opacity="0.02"/>
<path d="M138.647 340.35L147.369 340.33L147.349 349.052L151.22 349.061L151.248 336.451L138.638 336.479L138.647 340.35Z" fill="black" fill-opacity="0.02"/>
<path d="M113.392 410.622L113.376 398.064L100.817 398.047L100.812 401.918L109.511 401.929L109.522 410.627L113.392 410.622Z" fill="black" fill-opacity="0.02"/>
<path d="M92.5711 410.174L101.294 410.155L101.274 418.877L105.144 418.886L105.172 406.276L92.5626 406.304L92.5711 410.174Z" fill="black" fill-opacity="0.02"/>
<path d="M43.1273 574.711L43.1111 562.152L30.5524 562.136L30.5473 566.006L39.2458 566.017L39.2569 574.716L43.1273 574.711Z" fill="black" fill-opacity="0.02"/>
<path d="M22.3061 574.263L31.0285 574.243L31.0089 582.966L34.8793 582.974L34.9074 570.364L22.2976 570.393L22.3061 574.263Z" fill="black" fill-opacity="0.02"/>
<path d="M88.0508 668.974L88.0346 656.416L75.4759 656.399L75.4708 660.27L84.1693 660.281L84.1804 668.979L88.0508 668.974Z" fill="black" fill-opacity="0.02"/>
<path d="M67.2296 668.526L75.952 668.507L75.9324 677.229L79.8028 677.238L79.8309 664.628L67.2211 664.656L67.2296 668.526Z" fill="black" fill-opacity="0.02"/>
<path d="M113.392 620.097L113.376 607.538L100.817 607.522L100.812 611.392L109.511 611.403L109.522 620.102L113.392 620.097Z" fill="black" fill-opacity="0.02"/>
<path d="M92.5711 619.649L101.294 619.63L101.274 628.352L105.144 628.36L105.172 615.751L92.5626 615.779L92.5711 619.649Z" fill="black" fill-opacity="0.02"/>
<path d="M207.847 321.014L207.831 308.455L195.272 308.439L195.267 312.309L203.965 312.32L203.977 321.019L207.847 321.014Z" fill="black" fill-opacity="0.02"/>
<path d="M187.026 320.566L195.748 320.546L195.729 329.269L199.599 329.277L199.627 316.667L187.017 316.696L187.026 320.566Z" fill="black" fill-opacity="0.02"/>
<path d="M67.3168 341.961L67.3007 329.402L54.742 329.386L54.7368 333.257L63.4354 333.268L63.4465 341.966L67.3168 341.961Z" fill="black" fill-opacity="0.02"/>
<path d="M46.4957 341.513L55.2181 341.494L55.1985 350.216L59.0689 350.225L59.097 337.615L46.4872 337.643L46.4957 341.513Z" fill="black" fill-opacity="0.02"/>
<path d="M113.392 550.272L113.376 537.713L100.817 537.697L100.812 541.567L109.511 541.578L109.522 550.277L113.392 550.272Z" fill="black" fill-opacity="0.02"/>
<path d="M92.5711 549.824L101.294 549.805L101.274 558.527L105.144 558.536L105.172 545.926L92.5626 545.954L92.5711 549.824Z" fill="black" fill-opacity="0.02"/>
<path d="M206.695 432.733L206.679 420.175L194.12 420.159L194.115 424.029L202.814 424.04L202.825 432.739L206.695 432.733Z" fill="black" fill-opacity="0.02"/>
<path d="M185.874 432.286L194.596 432.266L194.577 440.988L198.447 440.997L198.475 428.387L185.865 428.415L185.874 432.286Z" fill="black" fill-opacity="0.02"/>
<path d="M67.3168 433.897L67.3007 421.339L54.742 421.322L54.7368 425.193L63.4354 425.204L63.4465 433.902L67.3168 433.897Z" fill="black" fill-opacity="0.02"/>
<path d="M46.4957 433.45L55.2181 433.43L55.1985 442.152L59.0689 442.161L59.097 429.551L46.4872 429.579L46.4957 433.45Z" fill="black" fill-opacity="0.02"/>
</svg>
