<svg width="100" height="30" viewBox="0 0 100 30" fill="none" xmlns="http://www.w3.org/2000/svg">
<path d="M0 0H30L15 15L30 30H0V0Z" fill="#FFC400"/>
<path d="M20.1971 20.2061L15 14.9955L20.1971 9.785L21.803 11.3866L18.2032 14.9955L21.803 18.6044L20.1971 20.2061Z" fill="#E60060"/>
<path d="M8.16406 11.3933L11.7864 14.9994L8.16406 18.6055L9.76426 20.2127L15.0009 14.9994L9.76426 9.78601L8.16406 11.3933Z" fill="#E60060"/>
<path d="M26.2267 8.24365H24V20.0563H26.2267V8.24365ZM30.3063 12.8V11.6182H28.0781V20.0563H30.3063V16.2768C30.3063 14.302 31.0993 13.4921 32.2134 13.4921C32.9549 13.4921 33.6139 13.9471 33.6139 15.095V20.0563H35.8413V14.9095C35.8413 12.5297 34.457 11.4665 32.9726 11.4665C32.0109 11.4665 31.0323 11.9392 30.4248 12.8H30.3063ZM41.6234 13.6438L42.2139 11.6182H40.2899V10.9437C40.2899 10.1168 40.5763 9.77888 41.0836 9.77888C41.3031 9.77888 41.5719 9.84661 41.8597 9.94821L42.3988 8.12582C41.7581 7.88876 41.1669 7.75401 40.6271 7.75401C39.0918 7.75401 38.0624 8.76645 38.0624 10.8252V11.6182H37.1509L36.5427 13.6438H38.0624V20.0563H40.2899V13.6438H41.6234ZM46.7873 18.1831C45.6556 18.1831 44.5084 17.4071 44.5084 15.838C44.5084 14.2851 45.6394 13.4921 46.7873 13.4921C47.9176 13.4921 49.0649 14.2851 49.0649 15.838C49.0649 17.4071 47.9176 18.1831 46.7873 18.1831ZM46.7873 20.208C49.0486 20.208 51.293 18.7398 51.293 15.838C51.293 12.9178 49.0317 11.4665 46.7873 11.4665C44.526 11.4665 42.2802 12.9178 42.2802 15.838C42.2802 18.7398 44.526 20.208 46.7873 20.208ZM58.4015 16.8673C58.0628 17.7443 57.2535 18.1831 56.4605 18.1831C55.3972 18.1831 54.3332 17.4071 54.3332 15.838C54.3332 14.2851 55.3972 13.4921 56.4605 13.4921C57.1696 13.4921 57.8942 13.8463 58.283 14.5384L60.2917 13.6268C59.5149 12.1925 57.9958 11.4665 56.4605 11.4665C54.2831 11.4665 52.1065 12.9178 52.1065 15.838C52.1065 18.7567 54.2831 20.208 56.4605 20.208C58.0967 20.208 59.7004 19.3988 60.4095 17.7612L58.4015 16.8673ZM61.1602 17.7612C61.1602 19.2294 62.1727 20.208 63.6233 20.208C64.7374 20.208 65.5819 19.7861 66.2903 19.027H66.4088L66.8978 20.0563H69.0751L69.6819 18.0315H68.5848V14.6562C68.5848 12.5467 66.7962 11.4665 65.0069 11.4665C63.3206 11.4665 61.7507 12.4119 61.4798 14.1835L63.6917 14.5384C63.6917 13.7115 64.3162 13.3227 65.0069 13.3227C65.7505 13.3227 66.3573 13.7277 66.3573 14.6562V14.9603H64.7211C62.2573 14.9603 61.1602 16.2253 61.1602 17.7612ZM64.434 18.3518C63.7926 18.3518 63.3869 18.0992 63.3869 17.5249C63.3869 17.036 63.7418 16.6472 64.6365 16.6472H66.3573C66.2903 17.7789 65.4126 18.3518 64.434 18.3518ZM70.2548 17.491C70.4912 19.2972 72.1619 20.208 73.9336 20.208C75.6382 20.208 77.309 19.3303 77.309 17.6265C77.309 14.7571 72.7525 14.9603 72.7525 13.8801C72.7525 13.4759 73.2252 13.3227 73.7642 13.3227C74.3724 13.3227 74.8621 13.5083 74.8953 14.0149L77.0387 13.6607C76.7854 12.2264 75.3341 11.4665 73.7642 11.4665C72.1443 11.4665 70.5413 12.3103 70.5413 13.9471C70.5413 16.7319 75.0984 16.614 75.0984 17.7274C75.0984 18.1662 74.5749 18.3518 73.9336 18.3518C73.1575 18.3518 72.4484 18.0484 72.3976 17.1883L70.2548 17.491ZM78.3588 11.6182L77.7506 13.6438H79.2697V20.0563H82.8469L83.455 18.0315H81.4964V13.6438H83.0832L83.6738 11.6182H81.4964V9.59332H79.2697V11.6182H78.3588ZM92.5186 16.6472V15.7865C92.5186 12.9178 90.3928 11.4665 88.334 11.4665C86.1228 11.4665 83.9623 12.9347 83.9623 15.8542C83.9623 18.284 85.6839 20.208 88.334 20.208C90.0386 20.208 91.5739 19.4834 92.3839 17.8635L90.2905 17.1883C89.9363 17.9299 89.2117 18.3518 88.334 18.3518C87.2199 18.3518 86.5115 17.6942 86.2752 16.6472H92.5186ZM88.334 13.3227C89.2611 13.3227 90.1049 13.8462 90.1903 14.9603H86.2914C86.5447 13.9641 87.2531 13.3227 88.334 13.3227ZM96.0429 12.8169V11.6182H93.8147V20.0563H96.0429V16.0905C96.0429 14.5214 96.5819 13.8463 98.101 13.8463H98.6753L99.3159 11.6182H98.3373C97.2917 11.6182 96.6666 11.8884 96.16 12.8169H96.0429Z" fill="black"/>
</svg>
